<svg xmlns="http://www.w3.org/2000/svg" xmlns:xlink="http://www.w3.org/1999/xlink" viewBox="0 0 360.12 360"><defs><style>.cls-1{fill:url(#무제_그라디언트_21);}.cls-2{fill:url(#무제_그라디언트_68);}.cls-3{fill:url(#무제_그라디언트_30);}.cls-4{fill:url(#무제_그라디언트_62);}</style><linearGradient id="무제_그라디언트_21" x1="111.97" y1="149.8" x2="312.82" y2="-51.05" gradientUnits="userSpaceOnUse"><stop offset="0" stop-color="#ff2f00"/><stop offset="0.13" stop-color="#ff3f00"/><stop offset="0.39" stop-color="#ff6700"/><stop offset="0.59" stop-color="#ff8b00"/></linearGradient><linearGradient id="무제_그라디언트_68" x1="281.56" y1="282.06" x2="281.56" y2="51.37" gradientUnits="userSpaceOnUse"><stop offset="0.2" stop-color="#ef0048"/><stop offset="0.79" stop-color="#ff8b00"/></linearGradient><linearGradient id="무제_그라디언트_30" x1="-0.82" y1="252.46" x2="182.62" y2="69.02" gradientUnits="userSpaceOnUse"><stop offset="0.09" stop-color="#840000"/><stop offset="0.26" stop-color="#a90e00"/><stop offset="0.45" stop-color="#ce1c00"/><stop offset="0.64" stop-color="#e92700"/><stop offset="0.8" stop-color="#f92d00"/><stop offset="0.93" stop-color="#ff2f00"/></linearGradient><linearGradient id="무제_그라디언트_62" x1="83.67" y1="351.04" x2="256.69" y2="251.15" gradientUnits="userSpaceOnUse"><stop offset="0.07" stop-color="#840000"/><stop offset="0.88" stop-color="#d20168"/></linearGradient></defs><g id="Layer_2" data-name="Layer 2"><g id="레이어_1" data-name="레이어 1"><path class="cls-1" d="M295.45,41.66A179.34,179.34,0,0,0,186.43,0L94.6,242.51Z"/><path class="cls-2" d="M318.35,64.6,203,180,318.33,295.29A180.1,180.1,0,0,0,318.35,64.6Z"/><path class="cls-3" d="M141.29,27.68.35,168.61A179.74,179.74,0,0,0,40.51,293.79Z"/><path class="cls-4" d="M180.07,202.88,64.73,318.22a180.09,180.09,0,0,0,230.68,0Z"/></g></g></svg>